<svg width="2221" height="407" viewBox="0 0 2221 407" fill="none" xmlns="http://www.w3.org/2000/svg">
<circle cx="203.5" cy="203.5" r="201.5" fill="url(#paint0_linear_206_19)" stroke="#121111" stroke-width="4"/>
<g filter="url(#filter0_d_206_19)">
<path d="M309 266V215.586V109C309 102.373 303.627 97 297 97H258.5C251.873 97 246.5 102.373 246.5 109V203.586C246.5 210.214 241.127 215.586 234.5 215.586H196C189.373 215.586 184 210.214 184 203.586V141.767C184 135.14 178.627 129.767 172 129.767H133.5C126.873 129.767 121.5 135.14 121.5 141.767V203.586C121.5 210.214 116.127 215.586 109.5 215.586H71C64.3726 215.586 59 220.959 59 227.586V266C59 272.627 64.3726 278 71 278H297C303.627 278 309 272.627 309 266Z" fill="url(#paint1_linear_206_19)"/>
<path d="M311 266V215.586V109C311 101.268 304.732 95 297 95H258.5C250.768 95 244.5 101.268 244.5 109V203.586C244.5 209.109 240.023 213.586 234.5 213.586H196C190.477 213.586 186 209.109 186 203.586V141.767C186 134.035 179.732 127.767 172 127.767H133.5C125.768 127.767 119.5 134.035 119.5 141.767V203.586C119.5 209.109 115.023 213.586 109.5 213.586H71C63.268 213.586 57 219.854 57 227.586V266C57 273.732 63.268 280 71 280H297C304.732 280 311 273.732 311 266Z" stroke="black" stroke-width="4"/>
</g>
<path d="M2158.46 322.07C2147.34 322.07 2137.86 320.582 2130.02 317.605C2122.19 314.628 2115.85 310.398 2110.99 304.915C2106.29 299.588 2103 293.243 2101.12 285.88L2142.95 283.53C2143.89 286.037 2145.61 287.995 2148.12 289.405C2150.78 290.815 2154.23 291.52 2158.46 291.52C2165.82 291.52 2171.31 289.64 2174.91 285.88C2178.67 282.277 2180.55 277.107 2180.55 270.37V259.56C2177.73 264.887 2173.66 269.195 2168.33 272.485C2163.16 275.775 2155.95 277.42 2146.71 277.42C2137 277.42 2128.3 274.913 2120.62 269.9C2112.95 264.887 2106.92 257.915 2102.53 248.985C2098.14 239.898 2095.95 229.48 2095.95 217.73C2095.95 204.57 2098.06 193.29 2102.29 183.89C2106.68 174.333 2112.63 167.048 2120.15 162.035C2127.67 156.865 2136.37 154.28 2146.24 154.28C2154.54 154.28 2161.44 156.16 2166.92 159.92C2172.56 163.523 2177.1 168.85 2180.55 175.9L2181.49 157.1H2220.5V264.26C2220.5 277.42 2217.91 288.23 2212.74 296.69C2207.57 305.307 2200.29 311.652 2190.89 315.725C2181.65 319.955 2170.84 322.07 2158.46 322.07ZM2159.4 247.34C2165.51 247.34 2170.52 244.912 2174.44 240.055C2178.51 235.198 2180.55 227.365 2180.55 216.555C2180.55 209.348 2179.61 203.395 2177.73 198.695C2176.01 193.995 2173.5 190.548 2170.21 188.355C2167.08 186.005 2163.47 184.83 2159.4 184.83C2152.35 184.83 2146.87 187.415 2142.95 192.585C2139.19 197.755 2137.31 205.745 2137.31 216.555C2137.31 227.365 2139.19 235.198 2142.95 240.055C2146.87 244.912 2152.35 247.34 2159.4 247.34Z" fill="#363636"/>
<path d="M1963.03 284V157.1H1999.46L2000.63 193.29L1996.87 192.35C1998.28 183.577 2000.79 176.37 2004.39 170.73C2007.99 165.09 2012.54 160.938 2018.02 158.275C2023.66 155.612 2030.08 154.28 2037.29 154.28C2046.06 154.28 2053.11 156.238 2058.44 160.155C2063.77 164.072 2067.68 169.555 2070.19 176.605C2072.7 183.655 2073.95 191.958 2073.95 201.515V284H2034V209.74C2034 201.75 2032.83 196.11 2030.48 192.82C2028.13 189.373 2024.68 187.65 2020.14 187.65C2017.16 187.65 2014.34 188.59 2011.68 190.47C2009.17 192.193 2007.05 194.857 2005.33 198.46C2003.76 202.063 2002.98 206.607 2002.98 212.09V284H1963.03Z" fill="#363636"/>
<path d="M1865.83 284V157.1H1905.78V284H1865.83ZM1821.18 284V253.45H1943.38V284H1821.18ZM1823.53 187.65V157.1H1895.91V187.65H1823.53ZM1865.6 144.41V113.39H1905.55V144.41H1865.6Z" fill="#363636"/>
<path d="M1753.12 284C1737.61 284 1726.26 280.553 1719.05 273.66C1712 266.61 1708.47 255.8 1708.47 241.23V127.255H1748.42V236.06C1748.42 241.857 1749.83 246.243 1752.65 249.22C1755.63 252.04 1760.02 253.45 1765.81 253.45H1793.07V284H1753.12ZM1675.57 187.65V157.1H1793.07V187.65H1675.57Z" fill="#363636"/>
<path d="M1540.31 284V157.1H1576.73L1577.91 193.29L1574.15 192.35C1575.56 183.577 1578.06 176.37 1581.67 170.73C1585.27 165.09 1589.81 160.938 1595.3 158.275C1600.94 155.612 1607.36 154.28 1614.57 154.28C1623.34 154.28 1630.39 156.238 1635.72 160.155C1641.04 164.072 1644.96 169.555 1647.47 176.605C1649.97 183.655 1651.23 191.958 1651.23 201.515V284H1611.28V209.74C1611.28 201.75 1610.1 196.11 1607.75 192.82C1605.4 189.373 1601.95 187.65 1597.41 187.65C1594.43 187.65 1591.61 188.59 1588.95 190.47C1586.44 192.193 1584.33 194.857 1582.61 198.46C1581.04 202.063 1580.26 206.607 1580.26 212.09V284H1540.31Z" fill="#363636"/>
<path d="M1436.06 286.82C1424.62 286.82 1415.61 283.06 1409.03 275.54C1402.61 267.863 1399.4 256.427 1399.4 241.23V157.1H1439.35V231.36C1439.35 239.507 1440.52 245.225 1442.87 248.515C1445.38 251.805 1448.83 253.45 1453.21 253.45C1457.44 253.45 1461.36 251.492 1464.96 247.575C1468.57 243.658 1470.37 237.627 1470.37 229.48V157.1H1510.32V284H1473.89L1472.72 244.05L1476.95 244.52C1475.69 257.993 1471.46 268.412 1464.26 275.775C1457.21 283.138 1447.81 286.82 1436.06 286.82Z" fill="#363636"/>
<path d="M1313.95 286.82C1301.73 286.82 1291 284.157 1281.75 278.83C1272.51 273.347 1265.3 265.67 1260.13 255.8C1254.96 245.773 1252.38 234.023 1252.38 220.55C1252.38 207.077 1254.96 195.405 1260.13 185.535C1265.3 175.508 1272.51 167.832 1281.75 162.505C1291 157.022 1301.73 154.28 1313.95 154.28C1326.17 154.28 1336.9 157.022 1346.14 162.505C1355.39 167.832 1362.59 175.508 1367.76 185.535C1372.93 195.405 1375.52 207.077 1375.52 220.55C1375.52 234.023 1372.93 245.773 1367.76 255.8C1362.59 265.67 1355.39 273.347 1346.14 278.83C1336.9 284.157 1326.17 286.82 1313.95 286.82ZM1313.95 252.51C1320.53 252.51 1325.54 249.847 1328.99 244.52C1332.44 239.037 1334.16 231.047 1334.16 220.55C1334.16 209.897 1332.44 201.907 1328.99 196.58C1325.54 191.253 1320.53 188.59 1313.95 188.59C1307.37 188.59 1302.36 191.253 1298.91 196.58C1295.46 201.907 1293.74 209.897 1293.74 220.55C1293.74 231.047 1295.46 239.037 1298.91 244.52C1302.36 249.847 1307.37 252.51 1313.95 252.51Z" fill="#363636"/>
<path d="M1174.45 286.82C1162.23 286.82 1151.34 284 1141.79 278.36C1132.39 272.72 1124.94 264.965 1119.46 255.095C1114.13 245.068 1111.47 233.553 1111.47 220.55C1111.47 207.547 1114.13 196.11 1119.46 186.24C1124.94 176.213 1132.39 168.38 1141.79 162.74C1151.34 157.1 1162.23 154.28 1174.45 154.28C1184.79 154.28 1194.27 156.473 1202.89 160.86C1211.66 165.09 1218.87 171.122 1224.51 178.955C1230.15 186.632 1233.51 195.64 1234.61 205.98L1195.6 207.86C1194.19 201.593 1191.68 196.815 1188.08 193.525C1184.63 190.235 1180.25 188.59 1174.92 188.59C1168.03 188.59 1162.62 191.488 1158.71 197.285C1154.79 202.925 1152.83 210.68 1152.83 220.55C1152.83 230.42 1154.79 238.253 1158.71 244.05C1162.62 249.69 1168.03 252.51 1174.92 252.51C1180.4 252.51 1184.87 250.787 1188.32 247.34C1191.92 243.893 1194.35 239.037 1195.6 232.77L1234.61 234.65C1233.51 244.99 1230.15 254.077 1224.51 261.91C1219.02 269.743 1211.89 275.853 1203.12 280.24C1194.5 284.627 1184.95 286.82 1174.45 286.82Z" fill="#363636"/>
<path d="M1033.54 286.82C1021.32 286.82 1010.43 284 1000.88 278.36C991.478 272.72 984.036 264.965 978.553 255.095C973.226 245.068 970.563 233.553 970.563 220.55C970.563 207.547 973.226 196.11 978.553 186.24C984.036 176.213 991.478 168.38 1000.88 162.74C1010.43 157.1 1021.32 154.28 1033.54 154.28C1043.88 154.28 1053.36 156.473 1061.98 160.86C1070.75 165.09 1077.96 171.122 1083.6 178.955C1089.24 186.632 1092.61 195.64 1093.7 205.98L1054.69 207.86C1053.28 201.593 1050.78 196.815 1047.17 193.525C1043.73 190.235 1039.34 188.59 1034.01 188.59C1027.12 188.59 1021.71 191.488 1017.8 197.285C1013.88 202.925 1011.92 210.68 1011.92 220.55C1011.92 230.42 1013.88 238.253 1017.8 244.05C1021.71 249.69 1027.12 252.51 1034.01 252.51C1039.5 252.51 1043.96 250.787 1047.41 247.34C1051.01 243.893 1053.44 239.037 1054.69 232.77L1093.7 234.65C1092.61 244.99 1089.24 254.077 1083.6 261.91C1078.11 269.743 1070.99 275.853 1062.21 280.24C1053.6 284.627 1044.04 286.82 1033.54 286.82Z" fill="#363636"/>
<path d="M824.015 284L866.315 117.15H916.135L958.435 284H916.605L891.225 172.14L865.845 284H824.015ZM858.325 256.505L867.725 221.02H914.725L924.125 256.505H858.325Z" fill="#363636"/>
<path d="M620.058 284V117.15H728.158V154.28H633.688L662.358 126.785V203.16L633.688 184.125H723.928V220.315H633.688L662.358 201.75V284H620.058Z" fill="#363636"/>
<path d="M476.8 284V117.15H583.02V154.28H519.1V182.245H580.2V218.435H519.1V246.87H584.9V284H476.8Z" fill="#363636"/>
<defs>
<filter id="filter0_d_206_19" x="51" y="93" width="266" height="197" filterUnits="userSpaceOnUse" color-interpolation-filters="sRGB">
<feFlood flood-opacity="0" result="BackgroundImageFix"/>
<feColorMatrix in="SourceAlpha" type="matrix" values="0 0 0 0 0 0 0 0 0 0 0 0 0 0 0 0 0 0 127 0" result="hardAlpha"/>
<feOffset dy="4"/>
<feGaussianBlur stdDeviation="2"/>
<feComposite in2="hardAlpha" operator="out"/>
<feColorMatrix type="matrix" values="0 0 0 0 0 0 0 0 0 0 0 0 0 0 0 0 0 0 0.25 0"/>
<feBlend mode="normal" in2="BackgroundImageFix" result="effect1_dropShadow_206_19"/>
<feBlend mode="normal" in="SourceGraphic" in2="effect1_dropShadow_206_19" result="shape"/>
</filter>
<linearGradient id="paint0_linear_206_19" x1="203.5" y1="0" x2="203.5" y2="407" gradientUnits="userSpaceOnUse">
<stop stop-color="#FFC107"/>
<stop offset="1" stop-color="#FFE28A"/>
</linearGradient>
<linearGradient id="paint1_linear_206_19" x1="202.125" y1="121.966" x2="194.957" y2="278.001" gradientUnits="userSpaceOnUse">
<stop stop-color="#15C85C"/>
<stop offset="0.652348" stop-color="#007BFF"/>
</linearGradient>
</defs>
</svg>
